<?xml version="1.0" encoding="UTF-8"?> <svg xmlns="http://www.w3.org/2000/svg" xml:space="preserve" width="1500" height="601" data-id="lg_TwAa9gn59Wb8em9q1w" data-version="1" viewBox="0 0 1500 601"><g data-padding="20"><path fill="#f012be" fill-rule="evenodd" d="M1017.144 567.644V412.028a11.615 11.615 0 1 1 23.23 0v167.231c0 6.4-5.214 11.615-11.615 11.615H861.528a11.615 11.615 0 1 1 0-23.23Zm-534.288 0h155.616a11.615 11.615 0 0 1 0 23.23H471.241a11.615 11.615 0 0 1-11.615-11.615V412.028a11.615 11.615 0 1 1 23.23 0ZM972.52 192.291v217.84c0 8.77-4.978 16.83-12.86 20.741l-198.104 99.083V297.774ZM738.444 297.359v232.596l-198.106-99.083a23.11 23.11 0 0 1-12.86-20.74V191.875ZM538.146 171.313q1.066-.711 2.192-1.244L739.63 70.393a23.22 23.22 0 0 1 20.741 0l199.29 99.735q1.364.592 2.549 1.482L750.416 277.507Zm478.998-137.957H861.528a11.615 11.615 0 1 1 0-23.23h167.231c6.4 0 11.615 5.214 11.615 11.615v167.231a11.615 11.615 0 1 1-23.23 0Zm-534.288 0v155.616a11.615 11.615 0 1 1-23.23 0V21.8c0-6.4 5.214-11.615 11.615-11.615h167.231a11.615 11.615 0 0 1 0 23.23Z"></path><path fill="transparent" stroke="transparent" d="M449.5 0h601v601h-601z"></path></g></svg> 