<svg id="Layer_1" data-name="Layer 1" xmlns="http://www.w3.org/2000/svg" viewBox="0 0 1600 900">
  <title>Logo-16-9</title>
  <path d="M553,171q255.4,0,510.8,0c1,0,1.18.22,1.18,1.18q0,254.82,0,509.64c0,1-.22,1.18-1.18,1.18Q809,683,554.18,683c-1,0-1.18-.22-1.18-1.18Q553,426.43,553,171Zm66.46,163.47v1.39q0,92,0,184c0,8.44,3.87,14.6,11.4,18.37Q714.3,580,797.73,621.75c1.45.73,1.45.73,1.45-.86q0-97.51,0-195a2.12,2.12,0,0,0-1.38-2.22Q715,382.29,632.28,340.89Zm199.34,189v97.27c0,1.73,0,1.73,1.56,1L939.68,562q23.43-11.73,46.87-23.43a22.11,22.11,0,0,0,6.9-5,20.64,20.64,0,0,0,5.1-14.33q-.06-91.12,0-182.25c0-2.2,0-2.19-2-1.19Q908.34,379.93,820.14,424a2.1,2.1,0,0,0-1.35,2.24Q818.84,474.86,818.82,523.49ZM628.69,317l.89.47q89.17,44.63,178.35,89.26a2.88,2.88,0,0,0,2.93,0q88.49-44.29,177-88.54c.55-.28,1.52-.43,1.52-1s-1-.82-1.55-1.11q-33.24-16.66-66.49-33.3-51.29-25.68-102.58-51.37c-6.34-3.18-12.63-3.41-19-.22L630.9,315.65A8,8,0,0,0,628.69,317Zm14,357.34h64.63c2.39,0,4.78,0,7.16,0a9.83,9.83,0,0,0,9.1-12.08c-1.15-4.72-5-7.65-10.17-7.65q-65.19,0-130.4,0c-1.34,0-1.64-.34-1.64-1.65q0-65.27,0-130.53c0-5.85-4.2-10.22-9.81-10.26a9.74,9.74,0,0,0-9.93,10.1q0,71,0,141.92a10.54,10.54,0,0,0,.48,3.39c1.44,4.28,5.09,6.76,10.06,6.77Zm332.41,0h70.26a12.84,12.84,0,0,0,4-.45c4.37-1.41,6.88-5.11,6.88-10.23V522.88c0-.47,0-.94,0-1.41a9.85,9.85,0,0,0-12.09-9.09c-4.71,1.14-7.65,5-7.65,10.16q0,65.26,0,130.53c0,1.24-.29,1.52-1.52,1.52q-64.95,0-129.89,0h-1.54a9.89,9.89,0,0,0-8.19,14.81c2.07,3.5,5.25,5,9.31,5Q940,674.29,975.14,674.33Zm0-494.66H911.4c-2.65,0-5.29,0-7.93,0a9.82,9.82,0,0,0-9.09,12.08c1.16,4.71,5,7.65,10.17,7.65q65.21,0,130.4,0c1.36,0,1.64.37,1.64,1.67q0,65,0,130a12.55,12.55,0,0,0,.41,3.66,9.83,9.83,0,0,0,11.07,7,10,10,0,0,0,8.31-10.13q-.07-70.83,0-141.66a11.15,11.15,0,0,0-.44-3.4c-1.41-4.34-5.1-6.87-10.12-6.88ZM561.68,260.78v55c0,5.54-.07,11.09,0,16.63a9.79,9.79,0,0,0,12.12,9.15c4.72-1.18,7.6-5,7.6-10.21q0-65.2,0-130.42c0-1.33.37-1.56,1.62-1.56q54.13.06,108.27.05c7.68,0,15.36.07,23,0A9.79,9.79,0,0,0,723,185.49c-1.92-4-5.27-5.8-9.71-5.79q-70.51,0-141,0h-1a8.76,8.76,0,0,0-3.12.62c-4.07,1.55-6.4,5.1-6.4,9.8Q561.67,225.47,561.68,260.78Z" style="fill: none"/>
  <path d="M619.48,334.49l12.8,6.4q82.77,41.39,165.55,82.74a2.12,2.12,0,0,1,1.38,2.22q0,97.51,0,195c0,1.59,0,1.59-1.45.86Q714.3,580,630.88,538.28c-7.53-3.77-11.39-9.93-11.4-18.37q0-92,0-184Z" style="fill: #ef12bd"/>
  <path d="M818.82,523.49q0-48.63,0-97.26a2.1,2.1,0,0,1,1.35-2.24q88.2-44,176.38-88.15c2-1,2-1,2,1.19q0,91.13,0,182.25a20.64,20.64,0,0,1-5.1,14.33,22.11,22.11,0,0,1-6.9,5q-23.44,11.7-46.87,23.43l-119.3,59.69c-1.56.78-1.56.78-1.56-1Z" style="fill: #ef12bd"/>
  <path d="M628.69,317a8,8,0,0,1,2.21-1.34L799.75,231.2c6.38-3.19,12.67-3,19,.22Q870,257.15,921.34,282.79q33.25,16.63,66.49,33.3c.59.29,1.55.43,1.55,1.11s-1,.68-1.52,1q-88.5,44.26-177,88.54a2.88,2.88,0,0,1-2.93,0q-89.16-44.66-178.35-89.26Z" style="fill: #ef12bd"/>
  <path d="M642.73,674.33H572.22c-5,0-8.62-2.49-10.06-6.77a10.54,10.54,0,0,1-.48-3.39q0-71,0-141.92a9.74,9.74,0,0,1,9.93-10.1c5.61,0,9.81,4.41,9.81,10.26q0,65.26,0,130.53c0,1.31.3,1.66,1.64,1.65q65.21,0,130.4,0c5.14,0,9,2.93,10.17,7.65a9.83,9.83,0,0,1-9.1,12.08c-2.38.08-4.77,0-7.16,0Z" style="fill: #ef12bd"/>
  <path d="M975.14,674.33q-35.19,0-70.38,0c-4.06,0-7.24-1.47-9.31-5a9.89,9.89,0,0,1,8.19-14.81h1.54q64.94,0,129.89,0c1.23,0,1.52-.28,1.52-1.52q0-65.27,0-130.53c0-5.13,2.94-9,7.65-10.16a9.85,9.85,0,0,1,12.09,9.09c0,.47,0,.94,0,1.41V663.65c0,5.12-2.51,8.82-6.88,10.23a12.84,12.84,0,0,1-4,.45Z" style="fill: #ef12bd"/>
  <path d="M975.13,179.67h70.63c5,0,8.71,2.54,10.12,6.88a11.15,11.15,0,0,1,.44,3.4q0,70.83,0,141.66a10,10,0,0,1-8.31,10.13,9.83,9.83,0,0,1-11.07-7,12.55,12.55,0,0,1-.41-3.66q0-65,0-130c0-1.3-.28-1.67-1.64-1.67q-65.19.06-130.4,0c-5.12,0-9-2.94-10.17-7.65a9.82,9.82,0,0,1,9.09-12.08c2.64-.09,5.28,0,7.93,0Z" style="fill: #ef12bd"/>
  <path d="M561.68,260.78q0-35.31,0-70.64c0-4.7,2.33-8.25,6.4-9.8a8.76,8.76,0,0,1,3.12-.62h1q70.51,0,141,0c4.44,0,7.79,1.76,9.71,5.79a9.79,9.79,0,0,1-8.64,13.94c-7.68.1-15.36,0-23,0q-54.13,0-108.27-.05c-1.25,0-1.62.23-1.62,1.56q.06,65.22,0,130.42c0,5.17-2.88,9-7.6,10.21a9.79,9.79,0,0,1-12.12-9.15c-.11-5.54,0-11.09,0-16.63Z" style="fill: #ef12bd"/>
</svg>
